<svg width="100%" height="100%" preserveAspectRatio="none" viewBox="0 0 994 316" fill="none" xmlns="http://www.w3.org/2000/svg">
<mask id="mask0_161_40" style="mask-type:alpha" maskUnits="userSpaceOnUse" x="0" y="0" width="100%" height="100%">
<rect width="100%" height="100%" fill="url(#paint0_linear_161_40)"/>
</mask>
<g mask="url(#mask0_161_40)">
<path d="M1.35156 0C-1.96215 0 -4.64844 2.68629 -4.64844 6C-4.64844 9.31371 -1.96215 12 1.35156 12V0ZM1.35156 12H298.196V0H1.35156V12Z" fill="white"/>
<path d="M304.196 5.99985C304.196 2.68614 301.51 -0.000152588 298.196 -0.000152588C294.882 -0.000152588 292.196 2.68614 292.196 5.99985H304.196ZM304.196 65.6987V5.99985H292.196V65.6987H304.196Z" fill="white"/>
<path d="M292.195 122.667C292.195 125.981 294.881 128.649 298.195 128.626C301.508 128.603 304.195 125.899 304.195 122.585L292.195 122.667ZM292.195 62.5637V122.667L304.195 122.585V62.4813L292.195 62.5637Z" fill="white"/>
<path d="M587.471 156.374C587.471 159.687 590.157 162.374 593.471 162.374C596.784 162.374 599.471 159.687 599.471 156.374H587.471ZM587.471 61.1934V156.374H599.471V61.1934H587.471Z" fill="white"/>
<path d="M599.471 151.868C599.471 148.554 596.784 145.868 593.471 145.868C590.157 145.868 587.471 148.554 587.471 151.868H599.471ZM587.471 151.868V240.29H599.471V151.868H587.471Z" fill="white"/>
<path d="M-0.64788 115.915C-3.96158 115.907 -6.80551 118.582 -6.99998 121.89C-7.19445 125.198 -4.66582 127.886 -1.35212 127.894L-0.64788 115.915ZM-1.35212 127.894L295.907 128.607L296.611 116.628L-0.64788 115.915L-1.35212 127.894Z" fill="white"/>
<path d="M593.184 68.2951C596.498 68.303 599.341 65.6278 599.536 62.3198C599.73 59.0118 597.201 56.3237 593.888 56.3158L593.184 68.2951ZM295.925 67.5815L593.184 68.2951L593.888 56.3158L296.629 55.6021L295.925 67.5815Z" fill="white"/>
<path d="M984.994 161.508C988.308 161.516 991.151 158.84 991.346 155.532C991.54 152.224 989.011 149.536 985.698 149.528L984.994 161.508ZM588.623 160.556L984.994 161.508L985.698 149.528L589.327 148.577L588.623 160.556Z" fill="white"/>
<path d="M1.35156 177.407C-1.96215 177.407 -4.64844 180.094 -4.64844 183.407C-4.64844 186.721 -1.96215 189.407 1.35156 189.407V177.407ZM1.35156 189.407H298.196V177.407H1.35156V189.407Z" fill="white"/>
<path d="M304.196 183.418C304.196 180.104 301.51 177.418 298.196 177.418C294.882 177.418 292.196 180.104 292.196 183.418H304.196ZM304.196 243.68V183.418H292.196V243.68H304.196Z" fill="white"/>
<path d="M292.196 309C292.196 312.314 294.882 315 298.196 315C301.51 315 304.196 312.314 304.196 309H292.196ZM292.196 240.853V309H304.196V240.853H292.196Z" fill="white"/>
<path d="M-0.64788 302.293C-3.96158 302.285 -6.80551 304.96 -6.99998 308.268C-7.19445 311.576 -4.66582 314.264 -1.35212 314.272L-0.64788 302.293ZM-1.35212 314.272L295.907 314.985L296.611 303.006L-0.64788 302.293L-1.35212 314.272Z" fill="white"/>
<path d="M593.184 246.692C596.498 246.7 599.341 244.025 599.536 240.717C599.73 237.409 597.201 234.721 593.888 234.713L593.184 246.692ZM295.925 245.978L593.184 246.692L593.888 234.713L296.629 233.999L295.925 245.978Z" fill="white"/>
</g>
<defs>
<linearGradient id="paint0_linear_161_40" x1="100%" y1="0" x2="0" y2="0" gradientUnits="userSpaceOnUse">
<stop stop-color="white"/>
<stop offset="1" stop-color="white" stop-opacity="0"/>
</linearGradient>
</defs>
</svg>
