<svg width="100%" height="100%" preserveAspectRatio="none" viewBox="0 0 364 415" fill="none" xmlns="http://www.w3.org/2000/svg">
<mask id="mask0_169_86" style="mask-type:alpha" maskUnits="userSpaceOnUse" x="0" y="0" width="100%" height="100%">
<rect x="364" width="100%" height="100%" transform="rotate(90 364 0)" fill="url(#paint0_linear_169_86)"/>
</mask>
<g mask="url(#mask0_169_86)">
<path d="M363.089 0.680664C363.089 -2.63304 360.403 -5.31934 357.089 -5.31934C353.775 -5.31934 351.089 -2.63304 351.089 0.680664L363.089 0.680664ZM351.089 0.680664V137.323H363.089V0.680664L351.089 0.680664Z" fill="white"/>
<path d="M357.089 143.324C360.403 143.324 363.089 140.638 363.089 137.324C363.089 134.011 360.403 131.324 357.089 131.324V143.324ZM288.322 143.324H357.089V131.324H288.322V143.324Z" fill="white"/>
<path d="M222.644 131.324C219.33 131.324 216.69 134.01 216.747 137.323C216.804 140.636 219.536 143.322 222.85 143.322L222.644 131.324ZM291.877 131.324H222.644L222.85 143.322H292.084L291.877 131.324Z" fill="white"/>
<path d="M183.873 267.244C180.559 267.244 177.873 269.93 177.873 273.244C177.873 276.557 180.559 279.244 183.873 279.244V267.244ZM293.511 267.244H183.873V279.244H293.511V267.244Z" fill="white"/>
<path d="M189.063 279.244C192.377 279.244 195.063 276.557 195.063 273.244C195.063 269.93 192.377 267.244 189.063 267.244V279.244ZM189.063 267.244H87.2099V279.244H189.063V267.244Z" fill="white"/>
<path d="M229.577 -0.260808C229.597 -3.57446 226.928 -6.32363 223.615 -6.40126C220.302 -6.47889 217.6 -3.85557 217.58 -0.541926L229.577 -0.260808ZM217.58 -0.541926L216.757 136.291L228.753 136.572L229.577 -0.260808L217.58 -0.541926Z" fill="white"/>
<path d="M286.232 273.131C286.212 276.445 288.882 279.194 292.195 279.272C295.507 279.35 298.209 276.726 298.229 273.413L286.232 273.131ZM287.054 136.299L286.232 273.131L298.229 273.413L299.051 136.58L287.054 136.299Z" fill="white"/>
<path d="M179.545 407.907C179.545 411.22 182.231 413.948 185.544 414C188.857 414.052 191.543 411.407 191.543 408.094L179.545 407.907ZM179.545 271.076V407.907L191.543 408.094V271.263L179.545 271.076Z" fill="white"/>
<path d="M158.734 0.680664C158.734 -2.63304 156.048 -5.31934 152.734 -5.31934C149.42 -5.31934 146.734 -2.63304 146.734 0.680664L158.734 0.680664ZM146.734 0.680664V137.323H158.734V0.680664L146.734 0.680664Z" fill="white"/>
<path d="M152.721 143.324C156.034 143.324 158.721 140.638 158.721 137.324C158.721 134.011 156.034 131.324 152.721 131.324V143.324ZM83.3047 143.324H152.721V131.324H83.3047V143.324Z" fill="white"/>
<path d="M8.06374 131.324C4.75004 131.324 2.06374 134.011 2.06374 137.324C2.06374 140.638 4.75004 143.324 8.06374 143.324V131.324ZM86.562 131.324H8.06374V143.324H86.562V131.324Z" fill="white"/>
<path d="M14.888 -0.260808C14.9079 -3.57446 12.2386 -6.32363 8.92576 -6.40126C5.61296 -6.47889 2.91124 -3.85557 2.8913 -0.541926L14.888 -0.260808ZM2.8913 -0.541926L2.06767 136.291L14.0644 136.572L14.888 -0.260808L2.8913 -0.541926Z" fill="white"/>
<path d="M80.7368 273.131C80.7169 276.445 83.3863 279.194 86.6991 279.272C90.0119 279.35 92.7135 276.726 92.7335 273.413L80.7368 273.131ZM81.5588 136.299L80.7368 273.131L92.7335 273.413L93.5555 136.58L81.5588 136.299Z" fill="white"/>
</g>
<defs>
<linearGradient id="paint0_linear_169_86" x1="779" y1="182" x2="364" y2="182" gradientUnits="userSpaceOnUse">
<stop stop-color="white"/>
<stop offset="1" stop-color="white" stop-opacity="0"/>
</linearGradient>
</defs>
</svg>
